<?xml version="1.0" encoding="utf-8"?>
<!-- Generator: Adobe Illustrator 27.5.0, SVG Export Plug-In . SVG Version: 6.00 Build 0)  -->
<svg version="1.1" id="Layer_1" xmlns="http://www.w3.org/2000/svg" xmlns:xlink="http://www.w3.org/1999/xlink" x="0px" y="0px"
	 viewBox="0 0 463.3 174.6" style="enable-background:new 0 0 463.3 174.6;" xml:space="preserve">
<style type="text/css">
	.st0{fill:#C3996C;}
	.st1{fill:#FFFFFF;}
	.st2{clip-path:url(#SVGID_00000158007180222502187760000002110025307140120204_);}
	.st3{clip-path:url(#SVGID_00000021108526846091872460000010982908328229350061_);}
	.st4{clip-path:url(#SVGID_00000125599678833764440310000006700285558956879751_);}
	.st5{clip-path:url(#SVGID_00000113349485397905183830000009424383232981446291_);}
	.st6{clip-path:url(#SVGID_00000111186632553307849030000012432654662566393997_);}
</style>
<path class="st0" d="M422.3,81.8c-22.6,0-41-18.3-41-40.9S399.7,0,422.3,0s41,18.3,41,40.9S444.9,81.8,422.3,81.8 M422.3,14.6
	c-14.5,0-26.4,11.8-26.4,26.3s11.8,26.3,26.4,26.3s26.4-11.8,26.4-26.3S436.9,14.6,422.3,14.6"/>
<g>
	<g>
		<path class="st1" d="M365.1,92.9c-3.1,1.3-5.8,2.9-8.1,4.8V120c0.8-2,2-3.8,3.7-5.4c3.1-2.8,6.9-4.2,11.5-4.2s8.4,1.4,11.4,4.1
			s4.5,6.7,4.5,11.9v37.8c0,4.6,3.8,8.4,8.4,8.4h14.1V122c0-4.7-0.7-9-2.2-12.9s-3.6-7.3-6.3-10.1c-2.8-2.8-6.1-4.9-10-6.5
			c-3.9-1.5-8.2-2.3-13-2.3C373.9,90.3,369.2,91.1,365.1,92.9"/>
		<g>
			<g>
				<path id="SVGID_1_" class="st1" d="M365.1,92.9c-3.1,1.3-5.8,2.9-8.1,4.8V120c0.8-2,2-3.8,3.7-5.4c3.1-2.8,6.9-4.2,11.5-4.2
					s8.4,1.4,11.4,4.1s4.5,6.7,4.5,11.9v37.8c0,4.6,3.8,8.4,8.4,8.4h14.1V122c0-4.7-0.7-9-2.2-12.9s-3.6-7.3-6.3-10.1
					c-2.8-2.8-6.1-4.9-10-6.5c-3.9-1.5-8.2-2.3-13-2.3C373.9,90.3,369.2,91.1,365.1,92.9"/>
			</g>
			<g>
				<defs>
					<path id="SVGID_00000021841440860802665160000003810405354542301091_" d="M365.1,92.9c-3.1,1.3-5.8,2.9-8.1,4.8V120
						c0.8-2,2-3.8,3.7-5.4c3.1-2.8,6.9-4.2,11.5-4.2s8.4,1.4,11.4,4.1s4.5,6.7,4.5,11.9v37.8c0,4.6,3.8,8.4,8.4,8.4h14.1V122
						c0-4.7-0.7-9-2.2-12.9s-3.6-7.3-6.3-10.1c-2.8-2.8-6.1-4.9-10-6.5c-3.9-1.5-8.2-2.3-13-2.3C373.9,90.3,369.2,91.1,365.1,92.9"
						/>
				</defs>
				<clipPath id="SVGID_00000031209309255465671550000012764158338686286744_">
					<use xlink:href="#SVGID_00000021841440860802665160000003810405354542301091_"  style="overflow:visible;"/>
				</clipPath>
				<g style="clip-path:url(#SVGID_00000031209309255465671550000012764158338686286744_);">
					
						<rect x="340.3" y="101" transform="matrix(9.254512e-02 -0.9957 0.9957 9.254512e-02 217.3769 501.5245)" class="st1" width="87" height="61"/>
				</g>
			</g>
		</g>
	</g>
	<g>
		<path class="st1" d="M213.7,93.6c-4.4,2.2-7.8,5-10.2,8.5c-2.2-3.8-5.4-6.7-9.3-8.7c-4-2-9-3.1-15.1-3.1c-5.1,0-9.6,0.9-13.5,2.7
			c-2.2,1-4.1,2.2-5.9,3.5v20.3c0.4-0.6,0.8-1.1,1.2-1.6c1.2-1.4,2.8-2.5,4.6-3.4s4-1.3,6.4-1.3c4.8,0,8.4,1.6,10.8,4.8
			c2.4,3.2,3.6,7.1,3.6,11.7v45.6h22.6v-47.7c0-1.7,0.3-3.4,1-5.1s1.6-3.2,2.8-4.6s2.8-2.5,4.6-3.4s4-1.3,6.6-1.3
			c4.8,0,8.4,1.6,10.7,4.8c2.4,3.2,3.5,7.1,3.5,11.7v38.2c0,4.1,3.3,7.4,7.4,7.4h15.2v-49.9c0-4.5-0.7-8.7-2-12.6s-3.3-7.3-5.8-10.3
			c-2.6-2.9-5.7-5.3-9.6-6.9c-3.8-1.7-8.3-2.5-13.4-2.5C223.6,90.3,218.2,91.4,213.7,93.6"/>
		<g>
			<g>
				<path id="SVGID_00000122692913878502605470000014991556135589867700_" class="st1" d="M213.7,93.6c-4.4,2.2-7.8,5-10.2,8.5
					c-2.2-3.8-5.4-6.7-9.3-8.7c-4-2-9-3.1-15.1-3.1c-5.1,0-9.6,0.9-13.5,2.7c-2.2,1-4.1,2.2-5.9,3.5v20.3c0.4-0.6,0.8-1.1,1.2-1.6
					c1.2-1.4,2.8-2.5,4.6-3.4s4-1.3,6.4-1.3c4.8,0,8.4,1.6,10.8,4.8c2.4,3.2,3.6,7.1,3.6,11.7v45.6h22.6v-47.7c0-1.7,0.3-3.4,1-5.1
					s1.6-3.2,2.8-4.6s2.8-2.5,4.6-3.4s4-1.3,6.6-1.3c4.8,0,8.4,1.6,10.7,4.8c2.4,3.2,3.5,7.1,3.5,11.7v38.2c0,4.1,3.3,7.4,7.4,7.4
					h15.2v-49.9c0-4.5-0.7-8.7-2-12.6s-3.3-7.3-5.8-10.3c-2.6-2.9-5.7-5.3-9.6-6.9c-3.8-1.7-8.3-2.5-13.4-2.5
					C223.6,90.3,218.2,91.4,213.7,93.6"/>
			</g>
			<g>
				<defs>
					<path id="SVGID_00000023969741842106590040000007744457672199959223_" d="M213.7,93.6c-4.4,2.2-7.8,5-10.2,8.5
						c-2.2-3.8-5.4-6.7-9.3-8.7c-4-2-9-3.1-15.1-3.1c-5.1,0-9.6,0.9-13.5,2.7c-2.2,1-4.1,2.2-5.9,3.5v20.3c0.4-0.6,0.8-1.1,1.2-1.6
						c1.2-1.4,2.8-2.5,4.6-3.4s4-1.3,6.4-1.3c4.8,0,8.4,1.6,10.8,4.8c2.4,3.2,3.6,7.1,3.6,11.7v45.6h22.6v-47.7c0-1.7,0.3-3.4,1-5.1
						s1.6-3.2,2.8-4.6s2.8-2.5,4.6-3.4s4-1.3,6.6-1.3c4.8,0,8.4,1.6,10.7,4.8c2.4,3.2,3.5,7.1,3.5,11.7v38.2c0,4.1,3.3,7.4,7.4,7.4
						h15.2v-49.9c0-4.5-0.7-8.7-2-12.6s-3.3-7.3-5.8-10.3c-2.6-2.9-5.7-5.3-9.6-6.9c-3.8-1.7-8.3-2.5-13.4-2.5
						C223.6,90.3,218.2,91.4,213.7,93.6"/>
				</defs>
				<clipPath id="SVGID_00000079458025488614750960000007439565545834618033_">
					<use xlink:href="#SVGID_00000023969741842106590040000007744457672199959223_"  style="overflow:visible;"/>
				</clipPath>
				<g style="clip-path:url(#SVGID_00000079458025488614750960000007439565545834618033_);">
					
						<rect x="164.6" y="77.3" transform="matrix(9.254512e-02 -0.9957 0.9957 9.254512e-02 59.8599 328.5288)" class="st1" width="91.2" height="108.3"/>
				</g>
			</g>
		</g>
	</g>
	<g>
		<path class="st1" d="M301.3,152.8c-2.5-1.1-4.7-2.6-6.6-4.6c-1.8-1.9-3.3-4.2-4.3-7s-1.5-5.7-1.5-8.8s0.5-6.2,1.5-8.9
			c1-2.7,2.5-5,4.3-7s4-3.5,6.6-4.6c2.5-1.1,5.4-1.7,8.4-1.7c6.2,0,11.2,2.1,15.1,6.2s5.7,9.4,5.7,16c0,6.6-1.9,11.9-5.7,16
			c-3.8,4.1-8.9,6.1-15.1,6.1C306.6,154.5,303.8,153.9,301.3,152.8 M290.4,94.8c-4.9,2-9.1,4.8-12.7,8.3c-3.6,3.6-6.4,7.8-8.3,12.9
			c-2,5-3,10.6-3,16.6s1,11.6,3,16.7c2,5.1,4.8,9.6,8.3,13.4c3.6,3.8,7.8,6.7,12.7,8.9c4.9,2.1,10.2,3.2,16.1,3.2
			c5.3,0,10-0.9,14.1-2.9c4.1-1.9,7.7-4.6,10.6-8.1c0,4.9,4,8.9,9,8.9h12V92.2h-21v9.8c-3-3.3-6.5-5.8-10.6-7.6
			c-4.1-1.8-8.9-2.7-14.1-2.7C300.7,91.8,295.3,92.8,290.4,94.8"/>
		<g>
			<g>
				<path id="SVGID_00000118361193455837341930000000861138497422322836_" class="st1" d="M301.3,152.8c-2.5-1.1-4.7-2.6-6.6-4.6
					c-1.8-1.9-3.3-4.2-4.3-7s-1.5-5.7-1.5-8.8s0.5-6.2,1.5-8.9c1-2.7,2.5-5,4.3-7s4-3.5,6.6-4.6c2.5-1.1,5.4-1.7,8.4-1.7
					c6.2,0,11.2,2.1,15.1,6.2s5.7,9.4,5.7,16c0,6.6-1.9,11.9-5.7,16c-3.8,4.1-8.9,6.1-15.1,6.1C306.6,154.5,303.8,153.9,301.3,152.8
					 M290.4,94.8c-4.9,2-9.1,4.8-12.7,8.3c-3.6,3.6-6.4,7.8-8.3,12.9c-2,5-3,10.6-3,16.6s1,11.6,3,16.7c2,5.1,4.8,9.6,8.3,13.4
					c3.6,3.8,7.8,6.7,12.7,8.9c4.9,2.1,10.2,3.2,16.1,3.2c5.3,0,10-0.9,14.1-2.9c4.1-1.9,7.7-4.6,10.6-8.1c0,4.9,4,8.9,9,8.9h12
					V92.2h-21v9.8c-3-3.3-6.5-5.8-10.6-7.6c-4.1-1.8-8.9-2.7-14.1-2.7C300.7,91.8,295.3,92.8,290.4,94.8"/>
			</g>
			<g>
				<defs>
					<path id="SVGID_00000152227671422481476750000000813840157052347827_" d="M301.3,152.8c-2.5-1.1-4.7-2.6-6.6-4.6
						c-1.8-1.9-3.3-4.2-4.3-7s-1.5-5.7-1.5-8.8s0.5-6.2,1.5-8.9c1-2.7,2.5-5,4.3-7s4-3.5,6.6-4.6c2.5-1.1,5.4-1.7,8.4-1.7
						c6.2,0,11.2,2.1,15.1,6.2s5.7,9.4,5.7,16c0,6.6-1.9,11.9-5.7,16c-3.8,4.1-8.9,6.1-15.1,6.1
						C306.6,154.5,303.8,153.9,301.3,152.8 M290.4,94.8c-4.9,2-9.1,4.8-12.7,8.3c-3.6,3.6-6.4,7.8-8.3,12.9c-2,5-3,10.6-3,16.6
						s1,11.6,3,16.7c2,5.1,4.8,9.6,8.3,13.4c3.6,3.8,7.8,6.7,12.7,8.9c4.9,2.1,10.2,3.2,16.1,3.2c5.3,0,10-0.9,14.1-2.9
						c4.1-1.9,7.7-4.6,10.6-8.1c0,4.9,4,8.9,9,8.9h12V92.2h-21v9.8c-3-3.3-6.5-5.8-10.6-7.6c-4.1-1.8-8.9-2.7-14.1-2.7
						C300.7,91.8,295.3,92.8,290.4,94.8"/>
				</defs>
				<clipPath id="SVGID_00000089557180913151399040000001090240735216598920_">
					<use xlink:href="#SVGID_00000152227671422481476750000000813840157052347827_"  style="overflow:visible;"/>
				</clipPath>
				<g style="clip-path:url(#SVGID_00000089557180913151399040000001090240735216598920_);">
					
						<rect x="264.1" y="86.7" transform="matrix(9.254512e-02 -0.9957 0.9957 9.254512e-02 148.024 428.9382)" class="st1" width="90.4" height="93.1"/>
				</g>
			</g>
		</g>
	</g>
	<g>
		<path class="st1" d="M9,92.3c-4,0-7.3,3.3-7.3,7.3v10.9h36.9L0,156.8v15.9h62c3.2,0,5.8-2.6,5.8-5.8v-12.4H28.3l37.9-45.6V92.3H9
			L9,92.3z"/>
		<g>
			<g>
				<path id="SVGID_00000064348697313758501260000016847621872696410038_" class="st1" d="M9,92.3c-4,0-7.3,3.3-7.3,7.3v10.9h36.9
					L0,156.8v15.9h62c3.2,0,5.8-2.6,5.8-5.8v-12.4H28.3l37.9-45.6V92.3H9L9,92.3z"/>
			</g>
			<g>
				<defs>
					<path id="SVGID_00000114075384567871447090000016626785391333613742_" d="M9,92.3c-4,0-7.3,3.3-7.3,7.3v10.9h36.9L0,156.8v15.9
						h62c3.2,0,5.8-2.6,5.8-5.8v-12.4H28.3l37.9-45.6V92.3H9L9,92.3z"/>
				</defs>
				<clipPath id="SVGID_00000075856072549735561340000011978836606914963113_">
					<use xlink:href="#SVGID_00000114075384567871447090000016626785391333613742_"  style="overflow:visible;"/>
				</clipPath>
				<g style="clip-path:url(#SVGID_00000075856072549735561340000011978836606914963113_);">
					
						<rect x="-9.2" y="95" transform="matrix(9.254512e-02 -0.9957 0.9957 9.254512e-02 -101.1472 154.007)" class="st1" width="86.3" height="75"/>
				</g>
			</g>
		</g>
	</g>
	<g>
		<path class="st1" d="M103.1,152.8c-2.6-1.1-4.7-2.6-6.6-4.6c-1.8-1.9-3.3-4.2-4.3-7s-1.5-5.7-1.5-8.8s0.5-6.2,1.5-8.9
			c1-2.7,2.4-5,4.3-7c1.8-2,4-3.5,6.6-4.6c2.5-1.1,5.3-1.7,8.4-1.7c6.2,0,11.2,2.1,15.1,6.2c3.8,4.1,5.7,9.4,5.7,16
			c0,6.6-1.9,11.9-5.7,16s-8.8,6.1-15.1,6.1C108.4,154.5,105.6,153.9,103.1,152.8 M92.2,94.8c-4.9,2-9.1,4.8-12.7,8.3
			s-6.3,7.8-8.3,12.9c-2,5-3,10.6-3,16.6s1,11.6,3,16.7c2,5.1,4.8,9.6,8.3,13.4c3.6,3.8,7.8,6.7,12.7,8.9c4.9,2.1,10.2,3.2,16.1,3.2
			c5.3,0,10-0.9,14.2-2.9c4.1-1.9,7.7-4.6,10.6-8.1v8.9H154V92.2h-13c-4.4,0-7.9,3.5-7.9,7.9v1.9c-3-3.3-6.5-5.8-10.6-7.6
			c-4.1-1.8-8.8-2.7-14.2-2.7C102.5,91.8,97.1,92.8,92.2,94.8"/>
		<g>
			<g>
				<path id="SVGID_00000173842488452155889090000006751904337596852623_" class="st1" d="M103.1,152.8c-2.6-1.1-4.7-2.6-6.6-4.6
					c-1.8-1.9-3.3-4.2-4.3-7s-1.5-5.7-1.5-8.8s0.5-6.2,1.5-8.9c1-2.7,2.4-5,4.3-7c1.8-2,4-3.5,6.6-4.6c2.5-1.1,5.3-1.7,8.4-1.7
					c6.2,0,11.2,2.1,15.1,6.2c3.8,4.1,5.7,9.4,5.7,16c0,6.6-1.9,11.9-5.7,16s-8.8,6.1-15.1,6.1C108.4,154.5,105.6,153.9,103.1,152.8
					 M92.2,94.8c-4.9,2-9.1,4.8-12.7,8.3s-6.3,7.8-8.3,12.9c-2,5-3,10.6-3,16.6s1,11.6,3,16.7c2,5.1,4.8,9.6,8.3,13.4
					c3.6,3.8,7.8,6.7,12.7,8.9c4.9,2.1,10.2,3.2,16.1,3.2c5.3,0,10-0.9,14.2-2.9c4.1-1.9,7.7-4.6,10.6-8.1v8.9H154V92.2h-13
					c-4.4,0-7.9,3.5-7.9,7.9v1.9c-3-3.3-6.5-5.8-10.6-7.6c-4.1-1.8-8.8-2.7-14.2-2.7C102.5,91.8,97.1,92.8,92.2,94.8"/>
			</g>
			<g>
				<defs>
					<path id="SVGID_00000060031262949529043650000006113718580697884815_" d="M103.1,152.8c-2.6-1.1-4.7-2.6-6.6-4.6
						c-1.8-1.9-3.3-4.2-4.3-7s-1.5-5.7-1.5-8.8s0.5-6.2,1.5-8.9c1-2.7,2.4-5,4.3-7c1.8-2,4-3.5,6.6-4.6c2.5-1.1,5.3-1.7,8.4-1.7
						c6.2,0,11.2,2.1,15.1,6.2c3.8,4.1,5.7,9.4,5.7,16c0,6.6-1.9,11.9-5.7,16s-8.8,6.1-15.1,6.1
						C108.4,154.5,105.6,153.9,103.1,152.8 M92.2,94.8c-4.9,2-9.1,4.8-12.7,8.3s-6.3,7.8-8.3,12.9c-2,5-3,10.6-3,16.6s1,11.6,3,16.7
						c2,5.1,4.8,9.6,8.3,13.4c3.6,3.8,7.8,6.7,12.7,8.9c4.9,2.1,10.2,3.2,16.1,3.2c5.3,0,10-0.9,14.2-2.9c4.1-1.9,7.7-4.6,10.6-8.1
						v8.9H154V92.2h-13c-4.4,0-7.9,3.5-7.9,7.9v1.9c-3-3.3-6.5-5.8-10.6-7.6c-4.1-1.8-8.8-2.7-14.2-2.7
						C102.5,91.8,97.1,92.8,92.2,94.8"/>
				</defs>
				<clipPath id="SVGID_00000160174674149102403770000010100186932329689997_">
					<use xlink:href="#SVGID_00000060031262949529043650000006113718580697884815_"  style="overflow:visible;"/>
				</clipPath>
				<g style="clip-path:url(#SVGID_00000160174674149102403770000010100186932329689997_);">
					
						<rect x="65.9" y="86.7" transform="matrix(9.254512e-02 -0.9957 0.9957 9.254512e-02 -31.8306 231.5848)" class="st1" width="90.4" height="93.1"/>
				</g>
			</g>
		</g>
	</g>
</g>
</svg>
