<?xml version="1.0" encoding="utf-8"?>
<!-- Generator: Adobe Illustrator 27.5.0, SVG Export Plug-In . SVG Version: 6.00 Build 0)  -->
<svg version="1.1" id="Layer_1" xmlns="http://www.w3.org/2000/svg" xmlns:xlink="http://www.w3.org/1999/xlink" x="0px" y="0px"
	 viewBox="0 0 410.6 79.9" style="enable-background:new 0 0 410.6 79.9;" xml:space="preserve">
<style type="text/css">
	.st0{clip-path:url(#SVGID_00000054974018261366484700000018424941814366867350_);}
	.st1{clip-path:url(#SVGID_00000000945745852218344960000015298944127996782217_);}
	.st2{clip-path:url(#SVGID_00000060026482692690827420000007273954377679565247_);}
	.st3{clip-path:url(#SVGID_00000024702990051232351770000006518186831494538401_);}
	.st4{clip-path:url(#SVGID_00000161601536627870930300000008329321592428531601_);}
</style>
<g>
	<g>
		<path d="M365.1-0.1c-3.1,1.3-5.8,2.9-8.1,4.8V27c0.8-2,2-3.8,3.7-5.4c3.1-2.8,6.9-4.2,11.5-4.2s8.4,1.4,11.4,4.1s4.5,6.7,4.5,11.9
			v37.8c0,4.6,3.8,8.4,8.4,8.4h14.1V29c0-4.7-0.7-9-2.2-12.9S404.8,8.8,402,6s-6.1-4.9-10-6.5c-3.9-1.5-8.2-2.3-13-2.3
			C373.9-2.7,369.2-1.9,365.1-0.1"/>
		<g>
			<g>
				<defs>
					<path id="SVGID_1_" d="M365.1-0.1c-3.1,1.3-5.8,2.9-8.1,4.8V27c0.8-2,2-3.8,3.7-5.4c3.1-2.8,6.9-4.2,11.5-4.2s8.4,1.4,11.4,4.1
						s4.5,6.7,4.5,11.9v37.8c0,4.6,3.8,8.4,8.4,8.4h14.1V29c0-4.7-0.7-9-2.2-12.9S404.8,8.8,402,6s-6.1-4.9-10-6.5
						c-3.9-1.5-8.2-2.3-13-2.3C373.9-2.7,369.2-1.9,365.1-0.1"/>
				</defs>
				<use xlink:href="#SVGID_1_"  style="overflow:visible;"/>
				<clipPath id="SVGID_00000018229137873345421010000013412141879082386348_">
					<use xlink:href="#SVGID_1_"  style="overflow:visible;"/>
				</clipPath>
				<g style="clip-path:url(#SVGID_00000018229137873345421010000013412141879082386348_);">
					
						<rect x="340.3" y="8" transform="matrix(9.254512e-02 -0.9957 0.9957 9.254512e-02 309.9786 417.132)" width="87" height="61"/>
				</g>
			</g>
		</g>
	</g>
	<g>
		<path d="M213.7,0.6c-4.4,2.2-7.8,5-10.2,8.5c-2.2-3.8-5.4-6.7-9.3-8.7c-4-2-9-3.1-15.1-3.1c-5.1,0-9.6,0.9-13.5,2.7
			c-2.2,1-4.1,2.2-5.9,3.5v20.3c0.4-0.6,0.8-1.1,1.2-1.6c1.2-1.4,2.8-2.5,4.6-3.4s4-1.3,6.4-1.3c4.8,0,8.4,1.6,10.8,4.8
			c2.4,3.2,3.6,7.1,3.6,11.7v45.6h22.6V31.8c0-1.7,0.3-3.4,1-5.1s1.6-3.2,2.8-4.6s2.8-2.5,4.6-3.4s4-1.3,6.6-1.3
			c4.8,0,8.4,1.6,10.7,4.8c2.4,3.2,3.5,7.1,3.5,11.7v38.2c0,4.1,3.3,7.4,7.4,7.4h15.2V29.6c0-4.5-0.7-8.7-2-12.6s-3.3-7.3-5.8-10.3
			c-2.6-2.9-5.7-5.3-9.6-6.9c-3.8-1.7-8.3-2.5-13.4-2.5C223.6-2.7,218.2-1.6,213.7,0.6"/>
		<g>
			<g>
				<defs>
					<path id="SVGID_00000105426338381978444860000003044666051315422593_" d="M213.7,0.6c-4.4,2.2-7.8,5-10.2,8.5
						c-2.2-3.8-5.4-6.7-9.3-8.7c-4-2-9-3.1-15.1-3.1c-5.1,0-9.6,0.9-13.5,2.7c-2.2,1-4.1,2.2-5.9,3.5v20.3c0.4-0.6,0.8-1.1,1.2-1.6
						c1.2-1.4,2.8-2.5,4.6-3.4s4-1.3,6.4-1.3c4.8,0,8.4,1.6,10.8,4.8c2.4,3.2,3.6,7.1,3.6,11.7v45.6h22.6V31.8c0-1.7,0.3-3.4,1-5.1
						s1.6-3.2,2.8-4.6s2.8-2.5,4.6-3.4s4-1.3,6.6-1.3c4.8,0,8.4,1.6,10.7,4.8c2.4,3.2,3.5,7.1,3.5,11.7v38.2c0,4.1,3.3,7.4,7.4,7.4
						h15.2V29.6c0-4.5-0.7-8.7-2-12.6s-3.3-7.3-5.8-10.3c-2.6-2.9-5.7-5.3-9.6-6.9c-3.8-1.7-8.3-2.5-13.4-2.5
						C223.6-2.7,218.2-1.6,213.7,0.6"/>
				</defs>
				<use xlink:href="#SVGID_00000105426338381978444860000003044666051315422593_"  style="overflow:visible;"/>
				<clipPath id="SVGID_00000078002723631824331090000005177003290894327204_">
					<use xlink:href="#SVGID_00000105426338381978444860000003044666051315422593_"  style="overflow:visible;"/>
				</clipPath>
				<g style="clip-path:url(#SVGID_00000078002723631824331090000005177003290894327204_);">
					
						<rect x="164.6" y="-15.7" transform="matrix(9.254512e-02 -0.9957 0.9957 9.254512e-02 152.4614 244.1364)" width="91.2" height="108.3"/>
				</g>
			</g>
		</g>
	</g>
	<g>
		<path d="M301.3,59.8c-2.5-1.1-4.7-2.6-6.6-4.6c-1.8-1.9-3.3-4.2-4.3-7s-1.5-5.7-1.5-8.8s0.5-6.2,1.5-8.9s2.5-5,4.3-7
			s4-3.5,6.6-4.6c2.5-1.1,5.4-1.7,8.4-1.7c6.2,0,11.2,2.1,15.1,6.2s5.7,9.4,5.7,16s-1.9,11.9-5.7,16c-3.8,4.1-8.9,6.1-15.1,6.1
			C306.6,61.5,303.8,60.9,301.3,59.8 M290.4,1.8c-4.9,2-9.1,4.8-12.7,8.3c-3.6,3.6-6.4,7.8-8.3,12.9c-2,5-3,10.6-3,16.6
			s1,11.6,3,16.7s4.8,9.6,8.3,13.4c3.6,3.8,7.8,6.7,12.7,8.9c4.9,2.1,10.2,3.2,16.1,3.2c5.3,0,10-0.9,14.1-2.9
			c4.1-1.9,7.7-4.6,10.6-8.1c0,4.9,4,8.9,9,8.9h12V-0.8h-21V9c-3-3.3-6.5-5.8-10.6-7.6s-8.9-2.7-14.1-2.7
			C300.7-1.2,295.3-0.2,290.4,1.8"/>
		<g>
			<g>
				<defs>
					<path id="SVGID_00000135687701798822261250000011715776801414132132_" d="M301.3,59.8c-2.5-1.1-4.7-2.6-6.6-4.6
						c-1.8-1.9-3.3-4.2-4.3-7s-1.5-5.7-1.5-8.8s0.5-6.2,1.5-8.9s2.5-5,4.3-7s4-3.5,6.6-4.6c2.5-1.1,5.4-1.7,8.4-1.7
						c6.2,0,11.2,2.1,15.1,6.2s5.7,9.4,5.7,16s-1.9,11.9-5.7,16c-3.8,4.1-8.9,6.1-15.1,6.1C306.6,61.5,303.8,60.9,301.3,59.8
						 M290.4,1.8c-4.9,2-9.1,4.8-12.7,8.3c-3.6,3.6-6.4,7.8-8.3,12.9c-2,5-3,10.6-3,16.6s1,11.6,3,16.7s4.8,9.6,8.3,13.4
						c3.6,3.8,7.8,6.7,12.7,8.9c4.9,2.1,10.2,3.2,16.1,3.2c5.3,0,10-0.9,14.1-2.9c4.1-1.9,7.7-4.6,10.6-8.1c0,4.9,4,8.9,9,8.9h12
						V-0.8h-21V9c-3-3.3-6.5-5.8-10.6-7.6s-8.9-2.7-14.1-2.7C300.7-1.2,295.3-0.2,290.4,1.8"/>
				</defs>
				<use xlink:href="#SVGID_00000135687701798822261250000011715776801414132132_"  style="overflow:visible;"/>
				<clipPath id="SVGID_00000079445166766382137030000011380786504103426748_">
					<use xlink:href="#SVGID_00000135687701798822261250000011715776801414132132_"  style="overflow:visible;"/>
				</clipPath>
				<g style="clip-path:url(#SVGID_00000079445166766382137030000011380786504103426748_);">
					
						<rect x="264.1" y="-6.3" transform="matrix(9.254512e-02 -0.9957 0.9957 9.254512e-02 240.6257 344.5457)" width="90.4" height="93.1"/>
				</g>
			</g>
		</g>
	</g>
	<g>
		<path d="M9-0.7c-4,0-7.3,3.3-7.3,7.3v10.9h36.9L0,63.8v15.9h62c3.2,0,5.8-2.6,5.8-5.8V61.5H28.3l37.9-45.6V-0.7H9L9-0.7z"/>
		<g>
			<g>
				<defs>
					<path id="SVGID_00000135664051003426743160000005056266841998246077_" d="M9-0.7c-4,0-7.3,3.3-7.3,7.3v10.9h36.9L0,63.8v15.9
						h62c3.2,0,5.8-2.6,5.8-5.8V61.5H28.3l37.9-45.6V-0.7H9L9-0.7z"/>
				</defs>
				<use xlink:href="#SVGID_00000135664051003426743160000005056266841998246077_"  style="overflow:visible;"/>
				<clipPath id="SVGID_00000146497219491934850460000012003792300227466923_">
					<use xlink:href="#SVGID_00000135664051003426743160000005056266841998246077_"  style="overflow:visible;"/>
				</clipPath>
				<g style="clip-path:url(#SVGID_00000146497219491934850460000012003792300227466923_);">
					
						<rect x="-9.2" y="2" transform="matrix(9.254512e-02 -0.9957 0.9957 9.254512e-02 -8.5457 69.6145)" width="86.3" height="75"/>
				</g>
			</g>
		</g>
	</g>
	<g>
		<path d="M103.1,59.8c-2.6-1.1-4.7-2.6-6.6-4.6c-1.8-1.9-3.3-4.2-4.3-7s-1.5-5.7-1.5-8.8s0.5-6.2,1.5-8.9s2.4-5,4.3-7
			c1.8-2,4-3.5,6.6-4.6c2.5-1.1,5.3-1.7,8.4-1.7c6.2,0,11.2,2.1,15.1,6.2c3.8,4.1,5.7,9.4,5.7,16s-1.9,11.9-5.7,16
			s-8.8,6.1-15.1,6.1C108.4,61.5,105.6,60.9,103.1,59.8 M92.2,1.8c-4.9,2-9.1,4.8-12.7,8.3s-6.3,7.8-8.3,12.9c-2,5-3,10.6-3,16.6
			s1,11.6,3,16.7s4.8,9.6,8.3,13.4c3.6,3.8,7.8,6.7,12.7,8.9c4.9,2.1,10.2,3.2,16.1,3.2c5.3,0,10-0.9,14.2-2.9
			c4.1-1.9,7.7-4.6,10.6-8.1v8.9H154V-0.8h-13c-4.4,0-7.9,3.5-7.9,7.9V9c-3-3.3-6.5-5.8-10.6-7.6s-8.8-2.7-14.2-2.7
			C102.5-1.2,97.1-0.2,92.2,1.8"/>
		<g>
			<g>
				<defs>
					<path id="SVGID_00000125601212953372309360000010063627807058134408_" d="M103.1,59.8c-2.6-1.1-4.7-2.6-6.6-4.6
						c-1.8-1.9-3.3-4.2-4.3-7s-1.5-5.7-1.5-8.8s0.5-6.2,1.5-8.9s2.4-5,4.3-7c1.8-2,4-3.5,6.6-4.6c2.5-1.1,5.3-1.7,8.4-1.7
						c6.2,0,11.2,2.1,15.1,6.2c3.8,4.1,5.7,9.4,5.7,16s-1.9,11.9-5.7,16s-8.8,6.1-15.1,6.1C108.4,61.5,105.6,60.9,103.1,59.8
						 M92.2,1.8c-4.9,2-9.1,4.8-12.7,8.3s-6.3,7.8-8.3,12.9c-2,5-3,10.6-3,16.6s1,11.6,3,16.7s4.8,9.6,8.3,13.4
						c3.6,3.8,7.8,6.7,12.7,8.9c4.9,2.1,10.2,3.2,16.1,3.2c5.3,0,10-0.9,14.2-2.9c4.1-1.9,7.7-4.6,10.6-8.1v8.9H154V-0.8h-13
						c-4.4,0-7.9,3.5-7.9,7.9V9c-3-3.3-6.5-5.8-10.6-7.6s-8.8-2.7-14.2-2.7C102.5-1.2,97.1-0.2,92.2,1.8"/>
				</defs>
				<use xlink:href="#SVGID_00000125601212953372309360000010063627807058134408_"  style="overflow:visible;"/>
				<clipPath id="SVGID_00000003796634511671666110000007363344557307238029_">
					<use xlink:href="#SVGID_00000125601212953372309360000010063627807058134408_"  style="overflow:visible;"/>
				</clipPath>
				<g style="clip-path:url(#SVGID_00000003796634511671666110000007363344557307238029_);">
					
						<rect x="65.9" y="-6.3" transform="matrix(9.254512e-02 -0.9957 0.9957 9.254512e-02 60.771 147.1923)" width="90.4" height="93.1"/>
				</g>
			</g>
		</g>
	</g>
</g>
</svg>
