<?xml version="1.0" encoding="utf-8"?>
<!-- Generator: Adobe Illustrator 27.5.0, SVG Export Plug-In . SVG Version: 6.00 Build 0)  -->
<svg version="1.1" id="Layer_1" xmlns="http://www.w3.org/2000/svg" xmlns:xlink="http://www.w3.org/1999/xlink" x="0px" y="0px"
	 viewBox="0 0 463.3 174.6" style="enable-background:new 0 0 463.3 174.6;" xml:space="preserve">
<style type="text/css">
	.st0{clip-path:url(#SVGID_00000154420095703109221500000002672472681259942813_);}
	.st1{clip-path:url(#SVGID_00000088821776608230879100000012218204485195280034_);}
	.st2{clip-path:url(#SVGID_00000139987991261382103050000010653235804759214468_);}
	.st3{clip-path:url(#SVGID_00000000207128230913254830000015503951100965902262_);}
	.st4{clip-path:url(#SVGID_00000175323611111226541680000001224163744360169353_);}
</style>
<path d="M422.3,81.8c-22.6,0-41-18.3-41-40.9S399.7,0,422.3,0s41,18.3,41,40.9S444.9,81.8,422.3,81.8 M422.3,14.6
	c-14.5,0-26.4,11.8-26.4,26.3s11.8,26.3,26.4,26.3s26.4-11.8,26.4-26.3S436.9,14.6,422.3,14.6"/>
<g>
	<g>
		<path d="M365.1,92.9c-3.1,1.3-5.8,2.9-8.1,4.8V120c0.8-2,2-3.8,3.7-5.4c3.1-2.8,6.9-4.2,11.5-4.2s8.4,1.4,11.4,4.1
			c3,2.7,4.5,6.7,4.5,11.9v37.8c0,4.6,3.8,8.4,8.4,8.4h14.1V122c0-4.7-0.7-9-2.2-12.9s-3.6-7.3-6.3-10.1c-2.8-2.8-6.1-4.9-10-6.5
			c-3.9-1.5-8.2-2.3-13-2.3C373.9,90.3,369.2,91.1,365.1,92.9"/>
		<g>
			<defs>
				<path id="SVGID_1_" d="M365.1,92.9c-3.1,1.3-5.8,2.9-8.1,4.8V120c0.8-2,2-3.8,3.7-5.4c3.1-2.8,6.9-4.2,11.5-4.2
					s8.4,1.4,11.4,4.1c3,2.7,4.5,6.7,4.5,11.9v37.8c0,4.6,3.8,8.4,8.4,8.4h14.1V122c0-4.7-0.7-9-2.2-12.9s-3.6-7.3-6.3-10.1
					c-2.8-2.8-6.1-4.9-10-6.5c-3.9-1.5-8.2-2.3-13-2.3C373.9,90.3,369.2,91.1,365.1,92.9"/>
			</defs>
			<use xlink:href="#SVGID_1_"  style="overflow:visible;"/>
			<clipPath id="SVGID_00000107565585504984679740000002983914209121630116_">
				<use xlink:href="#SVGID_1_"  style="overflow:visible;"/>
			</clipPath>
			<g style="clip-path:url(#SVGID_00000107565585504984679740000002983914209121630116_);">
				
					<rect x="340.3" y="101" transform="matrix(9.254433e-02 -0.9957 0.9957 9.254433e-02 217.3853 501.4835)" width="87" height="61"/>
			</g>
		</g>
	</g>
	<g>
		<path d="M213.7,93.6c-4.4,2.2-7.8,5-10.2,8.5c-2.2-3.8-5.4-6.7-9.3-8.7c-4-2-9-3.1-15.1-3.1c-5.1,0-9.6,0.9-13.5,2.7
			c-2.2,1-4.1,2.2-5.9,3.5v20.3c0.4-0.6,0.8-1.1,1.2-1.6c1.2-1.4,2.8-2.5,4.6-3.4c1.8-0.9,4-1.3,6.4-1.3c4.8,0,8.4,1.6,10.8,4.8
			c2.4,3.2,3.6,7.1,3.6,11.7v45.6h22.6v-47.7c0-1.7,0.3-3.4,1-5.1s1.6-3.2,2.8-4.6c1.2-1.4,2.8-2.5,4.6-3.4c1.8-0.9,4-1.3,6.6-1.3
			c4.8,0,8.4,1.6,10.7,4.8c2.4,3.2,3.5,7.1,3.5,11.7v38.2c0,4.1,3.3,7.4,7.4,7.4h15.2v-49.9c0-4.5-0.7-8.7-2-12.6
			c-1.3-3.9-3.3-7.3-5.8-10.3c-2.6-2.9-5.7-5.3-9.6-6.9c-3.8-1.7-8.3-2.5-13.4-2.5C223.6,90.3,218.2,91.4,213.7,93.6"/>
		<g>
			<defs>
				<path id="SVGID_00000044888307175050673940000006933605465637882555_" d="M213.7,93.6c-4.4,2.2-7.8,5-10.2,8.5
					c-2.2-3.8-5.4-6.7-9.3-8.7c-4-2-9-3.1-15.1-3.1c-5.1,0-9.6,0.9-13.5,2.7c-2.2,1-4.1,2.2-5.9,3.5v20.3c0.4-0.6,0.8-1.1,1.2-1.6
					c1.2-1.4,2.8-2.5,4.6-3.4c1.8-0.9,4-1.3,6.4-1.3c4.8,0,8.4,1.6,10.8,4.8c2.4,3.2,3.6,7.1,3.6,11.7v45.6h22.6v-47.7
					c0-1.7,0.3-3.4,1-5.1s1.6-3.2,2.8-4.6c1.2-1.4,2.8-2.5,4.6-3.4c1.8-0.9,4-1.3,6.6-1.3c4.8,0,8.4,1.6,10.7,4.8
					c2.4,3.2,3.5,7.1,3.5,11.7v38.2c0,4.1,3.3,7.4,7.4,7.4h15.2v-49.9c0-4.5-0.7-8.7-2-12.6c-1.3-3.9-3.3-7.3-5.8-10.3
					c-2.6-2.9-5.7-5.3-9.6-6.9c-3.8-1.7-8.3-2.5-13.4-2.5C223.6,90.3,218.2,91.4,213.7,93.6"/>
			</defs>
			<use xlink:href="#SVGID_00000044888307175050673940000006933605465637882555_"  style="overflow:visible;"/>
			<clipPath id="SVGID_00000155130305304606593770000006499859259863547060_">
				<use xlink:href="#SVGID_00000044888307175050673940000006933605465637882555_"  style="overflow:visible;"/>
			</clipPath>
			<g style="clip-path:url(#SVGID_00000155130305304606593770000006499859259863547060_);">
				
					<rect x="164.6" y="77.2" transform="matrix(9.254433e-02 -0.9957 0.9957 9.254433e-02 59.9317 328.5641)" width="91.2" height="108.3"/>
			</g>
		</g>
	</g>
	<g>
		<path d="M301.3,152.8c-2.5-1.1-4.7-2.6-6.6-4.6c-1.8-1.9-3.3-4.2-4.3-7s-1.5-5.7-1.5-8.8s0.5-6.2,1.5-8.9c1-2.7,2.5-5,4.3-7
			c1.8-2,4-3.5,6.6-4.6c2.5-1.1,5.4-1.7,8.4-1.7c6.2,0,11.2,2.1,15.1,6.2s5.7,9.4,5.7,16s-1.9,11.9-5.7,16
			c-3.8,4.1-8.9,6.1-15.1,6.1C306.6,154.5,303.8,153.9,301.3,152.8 M290.4,94.8c-4.9,2-9.1,4.8-12.7,8.3c-3.6,3.6-6.4,7.8-8.3,12.9
			c-2,5-3,10.6-3,16.6s1,11.6,3,16.7c2,5.1,4.8,9.6,8.3,13.4c3.6,3.8,7.8,6.7,12.7,8.9c4.9,2.1,10.2,3.2,16.1,3.2
			c5.3,0,10-0.9,14.1-2.9c4.1-1.9,7.7-4.6,10.6-8.1c0,4.9,4,8.9,9,8.9h12V92.2h-21v9.8c-3-3.3-6.5-5.8-10.6-7.6
			c-4.1-1.8-8.9-2.7-14.1-2.7C300.7,91.8,295.3,92.8,290.4,94.8"/>
		<g>
			<defs>
				<path id="SVGID_00000106846783239603396120000005716735952856044175_" d="M301.3,152.8c-2.5-1.1-4.7-2.6-6.6-4.6
					c-1.8-1.9-3.3-4.2-4.3-7s-1.5-5.7-1.5-8.8s0.5-6.2,1.5-8.9c1-2.7,2.5-5,4.3-7c1.8-2,4-3.5,6.6-4.6c2.5-1.1,5.4-1.7,8.4-1.7
					c6.2,0,11.2,2.1,15.1,6.2s5.7,9.4,5.7,16s-1.9,11.9-5.7,16c-3.8,4.1-8.9,6.1-15.1,6.1C306.6,154.5,303.8,153.9,301.3,152.8
					 M290.4,94.8c-4.9,2-9.1,4.8-12.7,8.3c-3.6,3.6-6.4,7.8-8.3,12.9c-2,5-3,10.6-3,16.6s1,11.6,3,16.7c2,5.1,4.8,9.6,8.3,13.4
					c3.6,3.8,7.8,6.7,12.7,8.9c4.9,2.1,10.2,3.2,16.1,3.2c5.3,0,10-0.9,14.1-2.9c4.1-1.9,7.7-4.6,10.6-8.1c0,4.9,4,8.9,9,8.9h12
					V92.2h-21v9.8c-3-3.3-6.5-5.8-10.6-7.6c-4.1-1.8-8.9-2.7-14.1-2.7C300.7,91.8,295.3,92.8,290.4,94.8"/>
			</defs>
			<use xlink:href="#SVGID_00000106846783239603396120000005716735952856044175_"  style="overflow:visible;"/>
			<clipPath id="SVGID_00000119117098860915079470000014563119620537617818_">
				<use xlink:href="#SVGID_00000106846783239603396120000005716735952856044175_"  style="overflow:visible;"/>
			</clipPath>
			<g style="clip-path:url(#SVGID_00000119117098860915079470000014563119620537617818_);">
				
					<rect x="264.1" y="86.7" transform="matrix(9.254433e-02 -0.9957 0.9957 9.254433e-02 148.0381 428.8976)" width="90.4" height="93.1"/>
			</g>
		</g>
	</g>
	<g>
		<path d="M9,92.3c-4,0-7.3,3.3-7.3,7.3v10.9h36.9L0,156.8v15.9h62c3.2,0,5.8-2.6,5.8-5.8v-12.4H28.3l37.9-45.6V92.3L9,92.3L9,92.3z
			"/>
		<g>
			<defs>
				<path id="SVGID_00000025438047977516871080000007293746975923268772_" d="M9,92.3c-4,0-7.3,3.3-7.3,7.3v10.9h36.9L0,156.8v15.9
					h62c3.2,0,5.8-2.6,5.8-5.8v-12.4H28.3l37.9-45.6V92.3L9,92.3L9,92.3z"/>
			</defs>
			<use xlink:href="#SVGID_00000025438047977516871080000007293746975923268772_"  style="overflow:visible;"/>
			<clipPath id="SVGID_00000047743039690551728690000000368844066348769417_">
				<use xlink:href="#SVGID_00000025438047977516871080000007293746975923268772_"  style="overflow:visible;"/>
			</clipPath>
			<g style="clip-path:url(#SVGID_00000047743039690551728690000000368844066348769417_);">
				
					<rect x="-9.3" y="95" transform="matrix(9.254433e-02 -0.9957 0.9957 9.254433e-02 -101.1441 153.9379)" width="86.3" height="75"/>
			</g>
		</g>
	</g>
	<g>
		<path d="M103.1,152.8c-2.6-1.1-4.7-2.6-6.6-4.6c-1.8-1.9-3.3-4.2-4.3-7s-1.5-5.7-1.5-8.8s0.5-6.2,1.5-8.9c1-2.7,2.4-5,4.3-7
			c1.8-2,4-3.5,6.6-4.6c2.5-1.1,5.3-1.7,8.4-1.7c6.2,0,11.2,2.1,15.1,6.2c3.8,4.1,5.7,9.4,5.7,16s-1.9,11.9-5.7,16
			c-3.8,4.1-8.8,6.1-15.1,6.1C108.4,154.5,105.6,153.9,103.1,152.8 M92.2,94.8c-4.9,2-9.1,4.8-12.7,8.3s-6.3,7.8-8.3,12.9
			c-2,5-3,10.6-3,16.6s1,11.6,3,16.7c2,5.1,4.8,9.6,8.3,13.4c3.6,3.8,7.8,6.7,12.7,8.9c4.9,2.1,10.2,3.2,16.1,3.2
			c5.3,0,10-0.9,14.2-2.9c4.1-1.9,7.7-4.6,10.6-8.1v8.9H154V92.2H141c-4.4,0-7.9,3.5-7.9,7.9v1.9c-3-3.3-6.5-5.8-10.6-7.6
			c-4.1-1.8-8.8-2.7-14.2-2.7C102.5,91.8,97.1,92.8,92.2,94.8"/>
		<g>
			<defs>
				<path id="SVGID_00000042726127906070035160000008905100026383144124_" d="M103.1,152.8c-2.6-1.1-4.7-2.6-6.6-4.6
					c-1.8-1.9-3.3-4.2-4.3-7s-1.5-5.7-1.5-8.8s0.5-6.2,1.5-8.9c1-2.7,2.4-5,4.3-7c1.8-2,4-3.5,6.6-4.6c2.5-1.1,5.3-1.7,8.4-1.7
					c6.2,0,11.2,2.1,15.1,6.2c3.8,4.1,5.7,9.4,5.7,16s-1.9,11.9-5.7,16c-3.8,4.1-8.8,6.1-15.1,6.1
					C108.4,154.5,105.6,153.9,103.1,152.8 M92.2,94.8c-4.9,2-9.1,4.8-12.7,8.3s-6.3,7.8-8.3,12.9c-2,5-3,10.6-3,16.6s1,11.6,3,16.7
					c2,5.1,4.8,9.6,8.3,13.4c3.6,3.8,7.8,6.7,12.7,8.9c4.9,2.1,10.2,3.2,16.1,3.2c5.3,0,10-0.9,14.2-2.9c4.1-1.9,7.7-4.6,10.6-8.1
					v8.9H154V92.2H141c-4.4,0-7.9,3.5-7.9,7.9v1.9c-3-3.3-6.5-5.8-10.6-7.6c-4.1-1.8-8.8-2.7-14.2-2.7
					C102.5,91.8,97.1,92.8,92.2,94.8"/>
			</defs>
			<use xlink:href="#SVGID_00000042726127906070035160000008905100026383144124_"  style="overflow:visible;"/>
			<clipPath id="SVGID_00000026137306882597237030000006388658335752534697_">
				<use xlink:href="#SVGID_00000042726127906070035160000008905100026383144124_"  style="overflow:visible;"/>
			</clipPath>
			<g style="clip-path:url(#SVGID_00000026137306882597237030000006388658335752534697_);">
				
					<rect x="65.9" y="86.7" transform="matrix(9.254433e-02 -0.9957 0.9957 9.254433e-02 -31.8203 231.5463)" width="90.4" height="93.1"/>
			</g>
		</g>
	</g>
</g>
</svg>
