<?xml version="1.0" encoding="UTF-8"?>
<svg id="Layer_1" data-name="Layer 1" xmlns="http://www.w3.org/2000/svg" xmlns:xlink="http://www.w3.org/1999/xlink" viewBox="0 0 463.33 174.64">
  <defs>
    <style>
      .cls-1 {
        clip-path: url(#clippath-2);
      }

      .cls-2 {
        clip-path: url(#clippath-1);
      }

      .cls-3 {
        clip-path: url(#clippath-4);
      }

      .cls-4 {
        clip-path: url(#clippath);
      }

      .cls-5 {
        clip-path: url(#clippath-3);
      }

      .cls-6 {
        fill: #c3996c;
      }

      .cls-7 {
        fill: #6d6e70;
      }
    </style>
    <clipPath id="clippath">
      <path class="cls-7" d="m365.09,92.88c-3.07,1.28-5.75,2.88-8.06,4.78v22.33c.79-2,1.98-3.81,3.7-5.38,3.06-2.8,6.88-4.19,11.47-4.19s8.38,1.37,11.39,4.12c3.01,2.74,4.51,6.71,4.51,11.89v37.85c0,4.62,3.76,8.37,8.39,8.37h14.09v-50.64c0-4.67-.74-8.98-2.22-12.89-1.48-3.91-3.59-7.27-6.34-10.07-2.75-2.79-6.07-4.95-9.95-6.48-3.87-1.53-8.21-2.29-13-2.29-5.2,0-9.86.86-13.99,2.59"/>
    </clipPath>
    <clipPath id="clippath-1">
      <path class="cls-7" d="m213.72,93.57c-4.44,2.19-7.83,5.01-10.17,8.47-2.24-3.76-5.36-6.66-9.33-8.7-3.98-2.03-9.03-3.05-15.15-3.05-5.1,0-9.61.9-13.53,2.67-2.18.99-4.12,2.15-5.88,3.47v20.26c.38-.55.76-1.11,1.21-1.62,1.22-1.37,2.75-2.49,4.59-3.36,1.84-.86,3.97-1.29,6.42-1.29,4.79,0,8.39,1.6,10.79,4.8,2.4,3.2,3.59,7.09,3.59,11.67v45.61h22.64v-47.74c0-1.73.33-3.43.99-5.11.66-1.68,1.61-3.2,2.83-4.58,1.22-1.37,2.75-2.49,4.59-3.36,1.83-.86,4.03-1.29,6.58-1.29,4.79,0,8.36,1.6,10.71,4.8,2.35,3.2,3.52,7.09,3.52,11.67v38.18c0,4.1,3.33,7.42,7.44,7.42h15.19v-49.88c0-4.47-.66-8.67-1.99-12.59-1.33-3.91-3.26-7.34-5.81-10.29-2.55-2.95-5.74-5.26-9.56-6.94-3.82-1.68-8.28-2.52-13.38-2.52-6.43,0-11.86,1.09-16.29,3.28"/>
    </clipPath>
    <clipPath id="clippath-2">
      <path class="cls-7" d="m301.29,152.83c-2.55-1.12-4.74-2.64-6.58-4.57-1.84-1.92-3.26-4.25-4.28-6.99-1.02-2.74-1.53-5.67-1.53-8.82s.51-6.2,1.53-8.89c1.02-2.68,2.45-5.01,4.28-6.99,1.84-1.97,4.03-3.52,6.58-4.64,2.54-1.11,5.36-1.67,8.41-1.67,6.22,0,11.24,2.05,15.06,6.15,3.82,4.1,5.74,9.45,5.74,16.04s-1.91,11.91-5.74,15.96c-3.83,4.06-8.85,6.08-15.06,6.08-3.06,0-5.87-.55-8.41-1.67m-10.86-58.05c-4.89,1.98-9.13,4.75-12.69,8.31-3.58,3.56-6.35,7.85-8.34,12.89-1.99,5.03-2.98,10.55-2.98,16.55s.99,11.57,2.98,16.7c1.99,5.14,4.76,9.59,8.34,13.35,3.56,3.76,7.8,6.71,12.69,8.85,4.9,2.14,10.25,3.2,16.06,3.2,5.3,0,10.02-.95,14.15-2.85,4.13-1.89,7.67-4.59,10.63-8.06,0,4.93,4.01,8.93,8.95,8.93h12v-80.39h-20.95v9.76c-2.96-3.26-6.5-5.77-10.63-7.55-4.13-1.78-8.85-2.67-14.15-2.67-5.81,0-11.17.99-16.06,2.98"/>
    </clipPath>
    <clipPath id="clippath-3">
      <path class="cls-7" d="m8.99,92.27c-4.04,0-7.31,3.26-7.31,7.29v10.87h36.86L0,156.79v15.87h62c3.19,0,5.77-2.58,5.77-5.75v-12.4H28.3l37.94-45.6v-16.63H8.99Z"/>
    </clipPath>
    <clipPath id="clippath-4">
      <path class="cls-7" d="m103.1,152.83c-2.56-1.12-4.74-2.64-6.58-4.57-1.84-1.92-3.26-4.25-4.28-6.99-1.02-2.74-1.53-5.67-1.53-8.82s.51-6.2,1.53-8.89c1.02-2.68,2.45-5.01,4.28-6.99,1.84-1.97,4.02-3.52,6.58-4.64,2.54-1.11,5.35-1.67,8.41-1.67,6.22,0,11.25,2.05,15.07,6.15,3.83,4.1,5.74,9.45,5.74,16.04s-1.91,11.91-5.74,15.96c-3.82,4.06-8.85,6.08-15.07,6.08-3.06,0-5.86-.55-8.41-1.67m-10.86-58.05c-4.9,1.98-9.13,4.75-12.7,8.31-3.57,3.56-6.35,7.85-8.33,12.89-1.99,5.03-2.98,10.55-2.98,16.55s.99,11.57,2.98,16.7c1.98,5.14,4.76,9.59,8.33,13.35,3.57,3.76,7.8,6.71,12.7,8.85,4.9,2.14,10.25,3.2,16.06,3.2,5.3,0,10.02-.95,14.15-2.85,4.13-1.89,7.67-4.59,10.63-8.06v8.93h20.95v-80.39h-13.05c-4.37,0-7.91,3.53-7.91,7.89v1.88c-2.96-3.26-6.5-5.77-10.63-7.55-4.13-1.78-8.85-2.67-14.15-2.67-5.81,0-11.16.99-16.06,2.98"/>
    </clipPath>
  </defs>
  <path class="cls-6" d="m422.33,81.77c-22.61,0-41-18.34-41-40.89S399.72,0,422.33,0s41,18.34,41,40.89-18.39,40.89-41,40.89m0-67.17c-14.54,0-26.36,11.79-26.36,26.29s11.83,26.29,26.36,26.29,26.36-11.79,26.36-26.29-11.83-26.29-26.36-26.29"/>
  <g>
    <g>
      <path class="cls-7" d="m365.09,92.88c-3.07,1.28-5.75,2.88-8.06,4.78v22.33c.79-2,1.98-3.81,3.7-5.38,3.06-2.8,6.88-4.19,11.47-4.19s8.38,1.37,11.39,4.12c3.01,2.74,4.51,6.71,4.51,11.89v37.85c0,4.62,3.76,8.37,8.39,8.37h14.09v-50.64c0-4.67-.74-8.98-2.22-12.89-1.48-3.91-3.59-7.27-6.34-10.07-2.75-2.79-6.07-4.95-9.95-6.48-3.87-1.53-8.21-2.29-13-2.29-5.2,0-9.86.86-13.99,2.59"/>
      <g class="cls-4">
        <rect class="cls-7" x="340.32" y="100.97" width="86.97" height="60.99" transform="translate(217.4 501.47) rotate(-84.69)"/>
      </g>
    </g>
    <g>
      <path class="cls-7" d="m213.72,93.57c-4.44,2.19-7.83,5.01-10.17,8.47-2.24-3.76-5.36-6.66-9.33-8.7-3.98-2.03-9.03-3.05-15.15-3.05-5.1,0-9.61.9-13.53,2.67-2.18.99-4.12,2.15-5.88,3.47v20.26c.38-.55.76-1.11,1.21-1.62,1.22-1.37,2.75-2.49,4.59-3.36,1.84-.86,3.97-1.29,6.42-1.29,4.79,0,8.39,1.6,10.79,4.8,2.4,3.2,3.59,7.09,3.59,11.67v45.61h22.64v-47.74c0-1.73.33-3.43.99-5.11.66-1.68,1.61-3.2,2.83-4.58,1.22-1.37,2.75-2.49,4.59-3.36,1.83-.86,4.03-1.29,6.58-1.29,4.79,0,8.36,1.6,10.71,4.8,2.35,3.2,3.52,7.09,3.52,11.67v38.18c0,4.1,3.33,7.42,7.44,7.42h15.19v-49.88c0-4.47-.66-8.67-1.99-12.59-1.33-3.91-3.26-7.34-5.81-10.29-2.55-2.95-5.74-5.26-9.56-6.94-3.82-1.68-8.28-2.52-13.38-2.52-6.43,0-11.86,1.09-16.29,3.28"/>
      <g class="cls-2">
        <rect class="cls-7" x="164.6" y="77.24" width="91.22" height="108.31" transform="translate(59.94 328.55) rotate(-84.69)"/>
      </g>
    </g>
    <g>
      <path class="cls-7" d="m301.29,152.83c-2.55-1.12-4.74-2.64-6.58-4.57-1.84-1.92-3.26-4.25-4.28-6.99-1.02-2.74-1.53-5.67-1.53-8.82s.51-6.2,1.53-8.89c1.02-2.68,2.45-5.01,4.28-6.99,1.84-1.97,4.03-3.52,6.58-4.64,2.54-1.11,5.36-1.67,8.41-1.67,6.22,0,11.24,2.05,15.06,6.15,3.82,4.1,5.74,9.45,5.74,16.04s-1.91,11.91-5.74,15.96c-3.83,4.06-8.85,6.08-15.06,6.08-3.06,0-5.87-.55-8.41-1.67m-10.86-58.05c-4.89,1.98-9.13,4.75-12.69,8.31-3.58,3.56-6.35,7.85-8.34,12.89-1.99,5.03-2.98,10.55-2.98,16.55s.99,11.57,2.98,16.7c1.99,5.14,4.76,9.59,8.34,13.35,3.56,3.76,7.8,6.71,12.69,8.85,4.9,2.14,10.25,3.2,16.06,3.2,5.3,0,10.02-.95,14.15-2.85,4.13-1.89,7.67-4.59,10.63-8.06,0,4.93,4.01,8.93,8.95,8.93h12v-80.39h-20.95v9.76c-2.96-3.26-6.5-5.77-10.63-7.55-4.13-1.78-8.85-2.67-14.15-2.67-5.81,0-11.17.99-16.06,2.98"/>
      <g class="cls-1">
        <rect class="cls-7" x="264.11" y="86.65" width="90.41" height="93.14" transform="translate(148.05 428.89) rotate(-84.69)"/>
      </g>
    </g>
    <g>
      <path class="cls-7" d="m8.99,92.27c-4.04,0-7.31,3.26-7.31,7.29v10.87h36.86L0,156.79v15.87h62c3.19,0,5.77-2.58,5.77-5.75v-12.4H28.3l37.94-45.6v-16.63H8.99Z"/>
      <g class="cls-5">
        <rect class="cls-7" x="-9.27" y="94.99" width="86.31" height="74.95" transform="translate(-101.15 153.94) rotate(-84.69)"/>
      </g>
    </g>
    <g>
      <path class="cls-7" d="m103.1,152.83c-2.56-1.12-4.74-2.64-6.58-4.57-1.84-1.92-3.26-4.25-4.28-6.99-1.02-2.74-1.53-5.67-1.53-8.82s.51-6.2,1.53-8.89c1.02-2.68,2.45-5.01,4.28-6.99,1.84-1.97,4.02-3.52,6.58-4.64,2.54-1.11,5.35-1.67,8.41-1.67,6.22,0,11.25,2.05,15.07,6.15,3.83,4.1,5.74,9.45,5.74,16.04s-1.91,11.91-5.74,15.96c-3.82,4.06-8.85,6.08-15.07,6.08-3.06,0-5.86-.55-8.41-1.67m-10.86-58.05c-4.9,1.98-9.13,4.75-12.7,8.31-3.57,3.56-6.35,7.85-8.33,12.89-1.99,5.03-2.98,10.55-2.98,16.55s.99,11.57,2.98,16.7c1.98,5.14,4.76,9.59,8.33,13.35,3.57,3.76,7.8,6.71,12.7,8.85,4.9,2.14,10.25,3.2,16.06,3.2,5.3,0,10.02-.95,14.15-2.85,4.13-1.89,7.67-4.59,10.63-8.06v8.93h20.95v-80.39h-13.05c-4.37,0-7.91,3.53-7.91,7.89v1.88c-2.96-3.26-6.5-5.77-10.63-7.55-4.13-1.78-8.85-2.67-14.15-2.67-5.81,0-11.16.99-16.06,2.98"/>
      <g class="cls-3">
        <rect class="cls-7" x="65.92" y="86.65" width="90.41" height="93.14" transform="translate(-31.81 231.55) rotate(-84.69)"/>
      </g>
    </g>
  </g>
</svg>