<?xml version="1.0" encoding="utf-8"?>
<!-- Generator: Adobe Illustrator 27.5.0, SVG Export Plug-In . SVG Version: 6.00 Build 0)  -->
<svg version="1.1" id="Layer_1" xmlns="http://www.w3.org/2000/svg" xmlns:xlink="http://www.w3.org/1999/xlink" x="0px" y="0px"
	 viewBox="0 0 410.6 79.9" style="enable-background:new 0 0 410.6 79.9;" xml:space="preserve">
<style type="text/css">
	.st0{fill:#6D6E70;}
	.st1{clip-path:url(#SVGID_00000081647658087541355180000000853067560742168451_);}
	.st2{clip-path:url(#SVGID_00000039112768376816867930000014605140506924396187_);}
	.st3{clip-path:url(#SVGID_00000110431122878470043990000007986577907396781480_);}
	.st4{clip-path:url(#SVGID_00000166636521857948480200000002108100740274518930_);}
	.st5{clip-path:url(#SVGID_00000105395260569424351570000000258018032650550449_);}
</style>
<g>
	<g>
		<path class="st0" d="M365.1-0.1c-3.1,1.3-5.8,2.9-8.1,4.8V27c0.8-2,2-3.8,3.7-5.4c3.1-2.8,6.9-4.2,11.5-4.2s8.4,1.4,11.4,4.1
			c3,2.7,4.5,6.7,4.5,11.9v37.8c0,4.6,3.8,8.4,8.4,8.4h14.1V29c0-4.7-0.7-9-2.2-12.9S404.8,8.8,402,6c-2.8-2.8-6.1-4.9-10-6.5
			c-3.9-1.5-8.2-2.3-13-2.3C373.9-2.7,369.2-1.9,365.1-0.1"/>
		<g>
			<defs>
				<path id="SVGID_1_" d="M365.1-0.1c-3.1,1.3-5.8,2.9-8.1,4.8V27c0.8-2,2-3.8,3.7-5.4c3.1-2.8,6.9-4.2,11.5-4.2s8.4,1.4,11.4,4.1
					c3,2.7,4.5,6.7,4.5,11.9v37.8c0,4.6,3.8,8.4,8.4,8.4h14.1V29c0-4.7-0.7-9-2.2-12.9S404.8,8.8,402,6c-2.8-2.8-6.1-4.9-10-6.5
					c-3.9-1.5-8.2-2.3-13-2.3C373.9-2.7,369.2-1.9,365.1-0.1"/>
			</defs>
			<clipPath id="SVGID_00000099630430699903417670000011708663159932452268_">
				<use xlink:href="#SVGID_1_"  style="overflow:visible;"/>
			</clipPath>
			<g style="clip-path:url(#SVGID_00000099630430699903417670000011708663159932452268_);">
				
					<rect x="340.3" y="8" transform="matrix(9.254433e-02 -0.9957 0.9957 9.254433e-02 309.9862 417.0901)" class="st0" width="87" height="61"/>
			</g>
		</g>
	</g>
	<g>
		<path class="st0" d="M213.7,0.6c-4.4,2.2-7.8,5-10.2,8.5c-2.2-3.8-5.4-6.7-9.3-8.7c-4-2-9-3.1-15.1-3.1c-5.1,0-9.6,0.9-13.5,2.7
			c-2.2,1-4.1,2.2-5.9,3.5v20.3c0.4-0.6,0.8-1.1,1.2-1.6c1.2-1.4,2.8-2.5,4.6-3.4c1.8-0.9,4-1.3,6.4-1.3c4.8,0,8.4,1.6,10.8,4.8
			c2.4,3.2,3.6,7.1,3.6,11.7v45.6h22.6V31.8c0-1.7,0.3-3.4,1-5.1s1.6-3.2,2.8-4.6c1.2-1.4,2.8-2.5,4.6-3.4c1.8-0.9,4-1.3,6.6-1.3
			c4.8,0,8.4,1.6,10.7,4.8c2.4,3.2,3.5,7.1,3.5,11.7v38.2c0,4.1,3.3,7.4,7.4,7.4h15.2V29.6c0-4.5-0.7-8.7-2-12.6
			c-1.3-3.9-3.3-7.3-5.8-10.3c-2.6-2.9-5.7-5.3-9.6-6.9c-3.8-1.7-8.3-2.5-13.4-2.5C223.6-2.7,218.2-1.6,213.7,0.6"/>
		<g>
			<defs>
				<path id="SVGID_00000013161617486055353240000009133041062322614446_" d="M213.7,0.6c-4.4,2.2-7.8,5-10.2,8.5
					c-2.2-3.8-5.4-6.7-9.3-8.7c-4-2-9-3.1-15.1-3.1c-5.1,0-9.6,0.9-13.5,2.7c-2.2,1-4.1,2.2-5.9,3.5v20.3c0.4-0.6,0.8-1.1,1.2-1.6
					c1.2-1.4,2.8-2.5,4.6-3.4c1.8-0.9,4-1.3,6.4-1.3c4.8,0,8.4,1.6,10.8,4.8c2.4,3.2,3.6,7.1,3.6,11.7v45.6h22.6V31.8
					c0-1.7,0.3-3.4,1-5.1s1.6-3.2,2.8-4.6c1.2-1.4,2.8-2.5,4.6-3.4c1.8-0.9,4-1.3,6.6-1.3c4.8,0,8.4,1.6,10.7,4.8
					c2.4,3.2,3.5,7.1,3.5,11.7v38.2c0,4.1,3.3,7.4,7.4,7.4h15.2V29.6c0-4.5-0.7-8.7-2-12.6c-1.3-3.9-3.3-7.3-5.8-10.3
					c-2.6-2.9-5.7-5.3-9.6-6.9c-3.8-1.7-8.3-2.5-13.4-2.5C223.6-2.7,218.2-1.6,213.7,0.6"/>
			</defs>
			<clipPath id="SVGID_00000029755223154211094440000012791447142008084657_">
				<use xlink:href="#SVGID_00000013161617486055353240000009133041062322614446_"  style="overflow:visible;"/>
			</clipPath>
			<g style="clip-path:url(#SVGID_00000029755223154211094440000012791447142008084657_);">
				
					<rect x="164.6" y="-15.8" transform="matrix(9.254433e-02 -0.9957 0.9957 9.254433e-02 152.5326 244.1708)" class="st0" width="91.2" height="108.3"/>
			</g>
		</g>
	</g>
	<g>
		<path class="st0" d="M301.3,59.8c-2.5-1.1-4.7-2.6-6.6-4.6c-1.8-1.9-3.3-4.2-4.3-7s-1.5-5.7-1.5-8.8s0.5-6.2,1.5-8.9
			c1-2.7,2.5-5,4.3-7c1.8-2,4-3.5,6.6-4.6c2.5-1.1,5.4-1.7,8.4-1.7c6.2,0,11.2,2.1,15.1,6.2s5.7,9.4,5.7,16s-1.9,11.9-5.7,16
			c-3.8,4.1-8.9,6.1-15.1,6.1C306.6,61.5,303.8,60.9,301.3,59.8 M290.4,1.8c-4.9,2-9.1,4.8-12.7,8.3c-3.6,3.6-6.4,7.8-8.3,12.9
			c-2,5-3,10.6-3,16.6s1,11.6,3,16.7c2,5.1,4.8,9.6,8.3,13.4c3.6,3.8,7.8,6.7,12.7,8.9c4.9,2.1,10.2,3.2,16.1,3.2
			c5.3,0,10-0.9,14.1-2.9c4.1-1.9,7.7-4.6,10.6-8.1c0,4.9,4,8.9,9,8.9h12V-0.8h-21V9c-3-3.3-6.5-5.8-10.6-7.6
			c-4.1-1.8-8.9-2.7-14.1-2.7C300.7-1.2,295.3-0.2,290.4,1.8"/>
		<g>
			<defs>
				<path id="SVGID_00000078034161697532975060000010675982224425242778_" d="M301.3,59.8c-2.5-1.1-4.7-2.6-6.6-4.6
					c-1.8-1.9-3.3-4.2-4.3-7s-1.5-5.7-1.5-8.8s0.5-6.2,1.5-8.9c1-2.7,2.5-5,4.3-7c1.8-2,4-3.5,6.6-4.6c2.5-1.1,5.4-1.7,8.4-1.7
					c6.2,0,11.2,2.1,15.1,6.2s5.7,9.4,5.7,16s-1.9,11.9-5.7,16c-3.8,4.1-8.9,6.1-15.1,6.1C306.6,61.5,303.8,60.9,301.3,59.8
					 M290.4,1.8c-4.9,2-9.1,4.8-12.7,8.3c-3.6,3.6-6.4,7.8-8.3,12.9c-2,5-3,10.6-3,16.6s1,11.6,3,16.7c2,5.1,4.8,9.6,8.3,13.4
					c3.6,3.8,7.8,6.7,12.7,8.9c4.9,2.1,10.2,3.2,16.1,3.2c5.3,0,10-0.9,14.1-2.9c4.1-1.9,7.7-4.6,10.6-8.1c0,4.9,4,8.9,9,8.9h12
					V-0.8h-21V9c-3-3.3-6.5-5.8-10.6-7.6c-4.1-1.8-8.9-2.7-14.1-2.7C300.7-1.2,295.3-0.2,290.4,1.8"/>
			</defs>
			<clipPath id="SVGID_00000090294618285289276570000017860262044332335489_">
				<use xlink:href="#SVGID_00000078034161697532975060000010675982224425242778_"  style="overflow:visible;"/>
			</clipPath>
			<g style="clip-path:url(#SVGID_00000090294618285289276570000017860262044332335489_);">
				
					<rect x="264.1" y="-6.3" transform="matrix(9.254433e-02 -0.9957 0.9957 9.254433e-02 240.639 344.5042)" class="st0" width="90.4" height="93.1"/>
			</g>
		</g>
	</g>
	<g>
		<path class="st0" d="M9-0.7c-4,0-7.3,3.3-7.3,7.3v10.9h36.9L0,63.8v15.9h62c3.2,0,5.8-2.6,5.8-5.8V61.5H28.3l37.9-45.6V-0.7L9-0.7
			L9-0.7z"/>
		<g>
			<defs>
				<path id="SVGID_00000119079643467141115670000005483464242414875312_" d="M9-0.7c-4,0-7.3,3.3-7.3,7.3v10.9h36.9L0,63.8v15.9h62
					c3.2,0,5.8-2.6,5.8-5.8V61.5H28.3l37.9-45.6V-0.7L9-0.7L9-0.7z"/>
			</defs>
			<clipPath id="SVGID_00000010993850534236656180000016444315846195152294_">
				<use xlink:href="#SVGID_00000119079643467141115670000005483464242414875312_"  style="overflow:visible;"/>
			</clipPath>
			<g style="clip-path:url(#SVGID_00000010993850534236656180000016444315846195152294_);">
				
					<rect x="-9.3" y="2" transform="matrix(9.254433e-02 -0.9957 0.9957 9.254433e-02 -8.5432 69.5446)" class="st0" width="86.3" height="75"/>
			</g>
		</g>
	</g>
	<g>
		<path class="st0" d="M103.1,59.8c-2.6-1.1-4.7-2.6-6.6-4.6c-1.8-1.9-3.3-4.2-4.3-7s-1.5-5.7-1.5-8.8s0.5-6.2,1.5-8.9
			c1-2.7,2.4-5,4.3-7c1.8-2,4-3.5,6.6-4.6c2.5-1.1,5.3-1.7,8.4-1.7c6.2,0,11.2,2.1,15.1,6.2c3.8,4.1,5.7,9.4,5.7,16
			s-1.9,11.9-5.7,16c-3.8,4.1-8.8,6.1-15.1,6.1C108.4,61.5,105.6,60.9,103.1,59.8 M92.2,1.8c-4.9,2-9.1,4.8-12.7,8.3
			s-6.3,7.8-8.3,12.9c-2,5-3,10.6-3,16.6s1,11.6,3,16.7c2,5.1,4.8,9.6,8.3,13.4c3.6,3.8,7.8,6.7,12.7,8.9c4.9,2.1,10.2,3.2,16.1,3.2
			c5.3,0,10-0.9,14.2-2.9c4.1-1.9,7.7-4.6,10.6-8.1v8.9H154V-0.8H141c-4.4,0-7.9,3.5-7.9,7.9V9c-3-3.3-6.5-5.8-10.6-7.6
			c-4.1-1.8-8.8-2.7-14.2-2.7C102.5-1.2,97.1-0.2,92.2,1.8"/>
		<g>
			<defs>
				<path id="SVGID_00000083807055140631861120000007015995723599493538_" d="M103.1,59.8c-2.6-1.1-4.7-2.6-6.6-4.6
					c-1.8-1.9-3.3-4.2-4.3-7s-1.5-5.7-1.5-8.8s0.5-6.2,1.5-8.9c1-2.7,2.4-5,4.3-7c1.8-2,4-3.5,6.6-4.6c2.5-1.1,5.3-1.7,8.4-1.7
					c6.2,0,11.2,2.1,15.1,6.2c3.8,4.1,5.7,9.4,5.7,16s-1.9,11.9-5.7,16c-3.8,4.1-8.8,6.1-15.1,6.1C108.4,61.5,105.6,60.9,103.1,59.8
					 M92.2,1.8c-4.9,2-9.1,4.8-12.7,8.3s-6.3,7.8-8.3,12.9c-2,5-3,10.6-3,16.6s1,11.6,3,16.7c2,5.1,4.8,9.6,8.3,13.4
					c3.6,3.8,7.8,6.7,12.7,8.9c4.9,2.1,10.2,3.2,16.1,3.2c5.3,0,10-0.9,14.2-2.9c4.1-1.9,7.7-4.6,10.6-8.1v8.9H154V-0.8H141
					c-4.4,0-7.9,3.5-7.9,7.9V9c-3-3.3-6.5-5.8-10.6-7.6c-4.1-1.8-8.8-2.7-14.2-2.7C102.5-1.2,97.1-0.2,92.2,1.8"/>
			</defs>
			<clipPath id="SVGID_00000033333656501321961950000009054330682191433149_">
				<use xlink:href="#SVGID_00000083807055140631861120000007015995723599493538_"  style="overflow:visible;"/>
			</clipPath>
			<g style="clip-path:url(#SVGID_00000033333656501321961950000009054330682191433149_);">
				
					<rect x="65.9" y="-6.3" transform="matrix(9.254433e-02 -0.9957 0.9957 9.254433e-02 60.7806 147.1529)" class="st0" width="90.4" height="93.1"/>
			</g>
		</g>
	</g>
</g>
</svg>
